<svg width="1233" height="200" viewBox="0 0 1233 200" fill="none" xmlns="http://www.w3.org/2000/svg">
<path d="M200 95.082C200 50.2599 200 27.8489 186.076 13.9244C172.151 0 149.74 0 104.918 0H95.082C50.2599 0 27.8489 0 13.9244 13.9244C1.52588e-05 27.8489 0 50.2599 0 95.082V104.918C0 149.74 1.52588e-05 172.151 13.9244 186.076C27.8489 200 50.2599 200 95.082 200H104.918C149.74 200 172.151 200 186.076 186.076C200 172.151 200 149.74 200 104.918V95.082Z" fill="#0077FF"/>
<path d="M159.956 2.16675C156.921 7.91517 153.604 14.8045 149.729 22.8548L107.222 111.148C94.8222 136.904 88.6224 149.782 94.5034 159.14C100.384 168.499 114.677 168.499 143.263 168.499H195.952C199.989 154.43 199.989 134.582 199.989 104.917V95.0807C199.989 50.2587 199.989 27.8476 186.065 13.9232C179.631 7.48972 171.386 4.02869 159.956 2.16675Z" fill="#00D9ED"/>
<path d="M125.234 73.7337L107.223 111.146C99.2861 127.632 93.8894 138.842 92.575 147.229C71.9081 147.112 60.9408 146.204 55.7209 139.214C54.78 137.954 53.9909 136.587 53.3701 135.142C49.4124 125.93 56.2074 114.161 69.7974 90.6221C83.3875 67.0835 90.1825 55.3142 100.139 54.1357C101.701 53.9509 103.279 53.9509 104.841 54.1357C112.037 54.9875 117.582 61.3718 125.234 73.7337Z" fill="white"/>
<path d="M328.882 151.504H304.732L270.37 54.2142H288.172L315.634 134.392H318.394L346.822 54.2142H364.348L328.882 151.504Z" fill="black"/>
<path d="M410.326 101.134L455.038 151.504H433.234L396.802 109.828H392.662V151.504H376.102V54.2142H392.662V93.8202H396.664L431.164 54.2142H451.588L410.326 101.134Z" fill="black"/>
<path d="M530.682 151.504H505.428L481.278 54.2142H498.39L517.848 134.392H520.056L540.618 54.2142H558.834L578.43 134.392H580.638L601.752 54.2142H618.588L592.782 151.504H567.252L550.554 81.4002H548.346L530.682 151.504Z" fill="black"/>
<path d="M657.589 152.884C650.229 152.884 643.605 151.32 637.717 148.192C631.921 144.972 627.367 140.556 624.055 134.944C620.835 129.24 619.225 122.8 619.225 115.624C619.225 108.448 620.835 102.054 624.055 96.4422C627.367 90.7382 631.921 86.3222 637.717 83.1942C643.605 79.9742 650.229 78.3642 657.589 78.3642C664.949 78.3642 671.527 79.9742 677.323 83.1942C683.211 86.3222 687.765 90.7382 690.985 96.4422C694.297 102.054 695.953 108.448 695.953 115.624C695.953 122.8 694.297 129.24 690.985 134.944C687.765 140.556 683.211 144.972 677.323 148.192C671.527 151.32 664.949 152.884 657.589 152.884ZM657.589 138.394C664.029 138.394 669.273 136.324 673.321 132.184C677.369 127.952 679.393 122.432 679.393 115.624C679.393 108.816 677.369 103.342 673.321 99.2022C669.273 94.9702 664.029 92.8542 657.589 92.8542C651.149 92.8542 645.905 94.9702 641.857 99.2022C637.809 103.342 635.785 108.816 635.785 115.624C635.785 122.432 637.809 127.952 641.857 132.184C645.905 136.324 651.149 138.394 657.589 138.394Z" fill="black"/>
<path d="M709.749 151.504V79.7442H721.617L724.653 90.0942C726.953 86.3222 729.667 83.6542 732.795 82.0902C736.015 80.5262 739.879 79.7442 744.387 79.7442H747.423L748.803 94.9242H739.695C730.311 94.9242 725.619 99.6622 725.619 109.138V151.504H709.749Z" fill="black"/>
<path d="M825.31 151.504H804.472L779.632 122.938H775.768V151.504H759.898V54.2142H775.768V107.62H779.632L803.644 79.7442H822.55L792.328 114.244L825.31 151.504Z" fill="black"/>
<path d="M866.979 152.884C857.963 152.884 850.005 150.492 843.105 145.708C836.297 140.832 831.743 134.3 829.443 126.112L845.451 123.352C848.119 128.228 851.109 131.862 854.421 134.254C857.733 136.554 861.965 137.704 867.117 137.704C871.901 137.704 875.811 136.646 878.847 134.53C881.975 132.322 883.539 129.332 883.539 125.56C883.539 122.8 882.665 120.5 880.917 118.66C879.169 116.728 876.961 115.164 874.293 113.968C871.625 112.772 868.083 111.438 863.667 109.966C857.503 107.942 852.443 105.964 848.487 104.032C844.531 102.008 841.127 99.1102 838.275 95.3382C835.515 91.4742 834.135 86.5062 834.135 80.4342C834.135 74.8222 835.515 69.9462 838.275 65.8062C841.127 61.5742 844.945 58.3542 849.729 56.1462C854.513 53.9382 859.895 52.8342 865.875 52.8342C874.339 52.8342 881.607 55.0422 887.679 59.4582C893.751 63.8742 898.029 69.9462 900.513 77.6742L884.781 80.2962C883.033 76.3402 880.595 73.3042 877.467 71.1882C874.339 69.0722 870.659 68.0142 866.427 68.0142C862.103 68.0142 858.469 69.0262 855.525 71.0502C852.581 73.0742 851.109 75.9262 851.109 79.6062C851.109 82.3662 851.937 84.6662 853.593 86.5062C855.341 88.3462 857.549 89.8642 860.217 91.0602C862.885 92.2562 866.473 93.6362 870.981 95.2002C877.145 97.3162 882.205 99.3862 886.161 101.41C890.117 103.434 893.475 106.378 896.235 110.242C899.087 114.106 900.513 119.028 900.513 125.008C900.513 130.62 898.995 135.542 895.959 139.774C893.015 144.006 888.967 147.272 883.815 149.572C878.755 151.78 873.143 152.884 866.979 152.884Z" fill="black"/>
<path d="M915.671 179.794V79.7442H927.539L930.851 91.3362C933.795 87.7482 937.567 84.7122 942.167 82.2282C946.767 79.6522 952.057 78.3642 958.037 78.3642C964.753 78.3642 970.779 79.9742 976.115 83.1942C981.451 86.3222 985.591 90.7382 988.535 96.4422C991.571 102.054 993.089 108.448 993.089 115.624C993.089 122.8 991.571 129.24 988.535 134.944C985.591 140.556 981.451 144.972 976.115 148.192C970.779 151.32 964.753 152.884 958.037 152.884C952.241 152.884 947.089 151.734 942.581 149.434C938.073 147.042 934.393 144.098 931.541 140.602V179.794H915.671ZM954.173 138.67C960.797 138.67 966.179 136.554 970.319 132.322C974.459 127.998 976.529 122.432 976.529 115.624C976.529 108.816 974.459 103.296 970.319 99.0642C966.179 94.7402 960.797 92.5782 954.173 92.5782C947.457 92.5782 941.983 94.7402 937.751 99.0642C933.611 103.296 931.541 108.816 931.541 115.624C931.541 122.432 933.611 127.998 937.751 132.322C941.983 136.554 947.457 138.67 954.173 138.67Z" fill="black"/>
<path d="M1036.16 78.3642C1045.36 78.3642 1052.59 81.2622 1057.83 87.0582C1063.17 92.7622 1065.83 100.812 1065.83 111.208V151.504H1054.1L1050.79 140.188C1048.77 143.592 1045.78 146.582 1041.82 149.158C1037.87 151.642 1033.17 152.884 1027.75 152.884C1022.96 152.884 1018.64 151.918 1014.77 149.986C1011 148.054 1008.06 145.34 1005.94 141.844C1003.83 138.348 1002.77 134.392 1002.77 129.976C1002.77 123.168 1005.44 117.74 1010.77 113.692C1016.2 109.552 1024.07 107.482 1034.37 107.482H1049.83C1049.46 102.698 1047.99 98.9262 1045.41 96.1662C1042.93 93.3142 1039.57 91.8882 1035.34 91.8882C1031.93 91.8882 1028.99 92.7162 1026.5 94.3722C1024.02 96.0282 1022.18 98.0522 1020.98 100.444L1006.36 97.9602C1008.1 91.8882 1011.69 87.1042 1017.12 83.6082C1022.64 80.1122 1028.99 78.3642 1036.16 78.3642ZM1031.47 139.498C1036.99 139.498 1041.45 137.704 1044.86 134.116C1048.26 130.528 1049.96 125.79 1049.96 119.902H1034.92C1024.16 119.902 1018.78 123.03 1018.78 129.286C1018.78 132.414 1019.93 134.898 1022.23 136.738C1024.53 138.578 1027.61 139.498 1031.47 139.498Z" fill="black"/>
<path d="M1116.31 152.884C1109.13 152.884 1102.69 151.32 1096.99 148.192C1091.28 144.972 1086.82 140.556 1083.6 134.944C1080.47 129.24 1078.91 122.8 1078.91 115.624C1078.91 108.448 1080.47 102.054 1083.6 96.4422C1086.82 90.7382 1091.28 86.3222 1096.99 83.1942C1102.69 79.9742 1109.13 78.3642 1116.31 78.3642C1124.22 78.3642 1131.21 80.3422 1137.28 84.2982C1143.45 88.1622 1147.82 93.6822 1150.39 100.858L1135.49 103.342C1133.93 100.214 1131.49 97.6842 1128.18 95.7522C1124.96 93.8202 1121.32 92.8542 1117.27 92.8542C1110.83 92.8542 1105.59 94.9702 1101.54 99.2022C1097.49 103.434 1095.47 108.908 1095.47 115.624C1095.47 122.34 1097.49 127.814 1101.54 132.046C1105.59 136.278 1110.83 138.394 1117.27 138.394C1121.51 138.394 1125.28 137.428 1128.59 135.496C1131.9 133.472 1134.39 130.85 1136.04 127.63L1150.95 130.114C1148.37 137.382 1143.91 142.994 1137.56 146.95C1131.21 150.906 1124.13 152.884 1116.31 152.884Z" fill="black"/>
<path d="M1232.4 114.796C1232.4 116.176 1232.31 117.878 1232.13 119.902H1174.44C1175.18 125.514 1177.48 130.022 1181.34 133.426C1185.21 136.738 1190.13 138.394 1196.11 138.394C1200.16 138.394 1203.79 137.612 1207.01 136.048C1210.32 134.484 1212.85 132.368 1214.6 129.7L1229.51 132.184C1226.93 138.808 1222.47 143.914 1216.12 147.502C1209.86 151.09 1202.87 152.884 1195.14 152.884C1187.97 152.884 1181.53 151.32 1175.82 148.192C1170.21 144.972 1165.79 140.556 1162.57 134.944C1159.45 129.24 1157.88 122.8 1157.88 115.624C1157.88 108.448 1159.45 102.054 1162.57 96.4422C1165.79 90.7382 1170.21 86.3222 1175.82 83.1942C1181.53 79.9742 1187.97 78.3642 1195.14 78.3642C1202.32 78.3642 1208.71 79.9742 1214.33 83.1942C1220.03 86.3222 1224.44 90.6922 1227.57 96.3042C1230.79 101.824 1232.4 107.988 1232.4 114.796ZM1195.14 92.1642C1190.36 92.1642 1186.17 93.5442 1182.58 96.3042C1179.09 99.0642 1176.7 102.79 1175.41 107.482H1215.15C1213.77 102.882 1211.29 99.2022 1207.7 96.4422C1204.2 93.5902 1200.02 92.1642 1195.14 92.1642Z" fill="black"/>
</svg>
